PathFileType	4	(x/y/z)	S04_M20_T19.trc
DataRate	CameraRate	NumFrames	NumMarkers	Units	OrigDataRate	OrigDataStartFrame	OrigNumFrames
240	240	11	51	mm	240	400	532
Frame#	Time	Sternum			R.Acromium			L.Acromium			Top.Head			R.ASIS			L.ASIS			R.PSIS			L.PSIS			R.Great.Tro			L.Great.Tro			R.Iliac.Crest			L.Iliac.Crest			V.Sacral			R.Thigh.Upper.Post			R.Thigh.Lower.Ant			R.Thigh.Lower.Post			R.Thigh.Upper.Ant			R.Knee.Lat			R.Knee.Med			R.Shank.Upper.Post			R.Shank.Lower.Ant			R.Shank.Lower.Post			R.Shank.Upper.Ant			R.Ankle.Lat			R.Ankle.Med			R.Heel.Upper			R.Heel.Med			R.Heel.Lat			R.Toe.Lat			R.Toe.Med			R.Toe.Tip			L.Thigh.Upper.Post			L.Thigh.Lower.Ant			L.Thigh.Lower.Post			L.Thigh.Upper.Ant			L.Knee.Lat			L.Knee.Med			L.Shank.Upper.Post			L.Shank.Lower.Ant			L.Shank.Lower.Post			L.Shank.Upper.Ant			L.Ankle.Lat			L.Ankle.Med			L.Heel.Upper			L.Heel.Med			L.Heel.Lat			L.Toe.Lat			L.Toe.Med			L.Toe.Tip			Cervical.Spine			Back			
		X1	Y1	Z1	X2	Y2	Z2	X3	Y3	Z3	X4	Y4	Z4	X5	Y5	Z5	X6	Y6	Z6	X7	Y7	Z7	X8	Y8	Z8	X9	Y9	Z9	X10	Y10	Z10	X11	Y11	Z11	X12	Y12	Z12	X13	Y13	Z13	X14	Y14	Z14	X15	Y15	Z15	X16	Y16	Z16	X17	Y17	Z17	X18	Y18	Z18	X19	Y19	Z19	X20	Y20	Z20	X21	Y21	Z21	X22	Y22	Z22	X23	Y23	Z23	X24	Y24	Z24	X25	Y25	Z25	X26	Y26	Z26	X27	Y27	Z27	X28	Y28	Z28	X29	Y29	Z29	X30	Y30	Z30	X31	Y31	Z31	X32	Y32	Z32	X33	Y33	Z33	X34	Y34	Z34	X35	Y35	Z35	X36	Y36	Z36	X37	Y37	Z37	X38	Y38	Z38	X39	Y39	Z39	X40	Y40	Z40	X41	Y41	Z41	X42	Y42	Z42	X43	Y43	Z43	X44	Y44	Z44	X45	Y45	Z45	X46	Y46	Z46	X47	Y47	Z47	X48	Y48	Z48	X49	Y49	Z49	X50	Y50	Z50	X51	Y51	Z51	

400	1.6625	1380	1269.8	294.82	1251.5	1496.8	471.27	1236.4	1479.9	119.79	1262.8	1821.3	279.58	1352	977.45	437.08	1368.5	1006.4	187.37	1145.9	1022.6	323.97	1158.9	1030.1	243.33	1257.5	895.77	488.5	1262.4	921.54	109.66	1266.6	1071.9	475.31	1266.2	1081.7	132.49	1130.8	984.74	280.15	1273.6	633.26	481.22	1355.2	554.69	455.35	1278.9	543.09	467.89	1356.3	664.83	472.94	1294.1	478.73	461.87	1284.8	475.46	324.98	1079.3	395.98	456.21	1057.1	293.03	422.2	1023.3	354.32	443.86	1111.7	338.47	443.42	936.61	278.74	428.19	964.56	259.84	341.9	881.99	310.61	364.59	861.93	286.53	334.43	853.58	293.75	399.42	930.35	148.3	463.92	959.19	111.2	352.18	1005.9	72.857	405.61	1302.7	677.29	130.14	1404.5	606.69	146.62	1333.2	595.42	149.61	1370.2	686.99	124.13	1393.7	514.49	166.5	1392.2	508.25	292.05	1316.8	329.1	171.29	1390.9	246.41	182.63	1326.7	252.22	183.34	1382	321.88	170.94	1371.4	99.357	203.2	1373.2	111.77	298.55	1295.1	70.675	253.37	1301.4	47.056	287.74	1297	42.766	225.84	1479.3	42.226	184.15	1513.3	50.77	300.44	1569.5	61.409	251.08	1192.2	1538.6	301.83	1120.5	1278.6	283.99
401	1.6667	1384.9	1270.9	294.31	1256.6	1497.8	471.04	1241.1	1481	119.59	1267.7	1822.4	279.7	1357.7	978.66	436.33	1373.1	1007.3	186.49	1151.1	1023.6	324.29	1163.7	1031.1	243.58	1263.7	896.91	488.35	1266.4	922.3	109.49	1272.3	1073	474.99	1270.9	1082.7	132.22	1135.8	985.75	280.56	1282.4	634.45	480.99	1364.7	556.68	454.69	1288.5	544.34	467.5	1364.7	666.8	472.45	1304.2	480.18	461.27	1294.6	477.08	324.32	1090.1	395.95	455.75	1068.7	292.81	421.94	1034.4	353.86	443.49	1122.9	338.66	443.06	948.3	277.44	428.07	976.29	258.88	341.71	893.04	308.63	364.63	873.25	284.26	334.47	864.96	291.39	399.46	943.74	146.97	463.82	972.77	110.26	352	1020.1	72.57	405.31	1305.3	677.96	130.05	1406.7	606.51	146.29	1335.2	595.81	149.35	1372.9	687.07	123.89	1395.2	514.41	166.22	1393.9	508.19	291.74	1317.5	329.28	171.31	1391.4	246.36	182.54	1327.2	252.39	183.39	1382.7	321.85	170.83	1371.5	99.459	203.33	1373.4	111.81	298.66	1295.2	70.801	253.43	1301.4	47.119	287.79	1297.1	42.919	225.87	1479.4	42.205	184.11	1513.4	50.51	300.45	1569.6	61.064	251.05	1197.1	1539.6	301.7	1125.4	1279.6	283.87
402	1.6708	1389.9	1271.9	293.81	1261.8	1498.7	470.81	1245.7	1482.1	119.4	1272.6	1823.5	279.83	1363.4	979.87	435.59	1377.7	1008.1	185.62	1156.3	1024.6	324.62	1168.5	1032	243.83	1269.9	898.06	488.21	1270.3	923.05	109.32	1277.9	1074	474.68	1275.5	1083.8	131.96	1140.7	986.75	280.98	1291.2	635.66	480.78	1374.1	558.71	454.04	1298.2	545.64	467.12	1373.2	668.78	471.96	1314.3	481.66	460.69	1304.4	478.73	323.69	1100.9	395.82	455.32	1080.3	292.5	421.68	1045.5	353.27	443.14	1134.1	338.77	442.69	960.07	275.97	427.96	988.1	257.77	341.51	904.15	306.44	364.68	884.65	281.79	334.51	876.42	288.79	399.51	957.27	145.47	463.67	986.53	109.2	351.78	1034.5	72.178	404.95	1307.9	678.63	129.96	1408.8	606.32	145.97	1337.2	596.2	149.1	1375.5	687.15	123.65	1396.6	514.34	165.94	1395.5	508.13	291.43	1318.2	329.47	171.34	1391.9	246.31	182.44	1327.7	252.57	183.42	1383.4	321.83	170.72	1371.7	99.558	203.46	1373.5	111.85	298.77	1295.2	70.925	253.49	1301.4	47.182	287.83	1297.1	43.07	225.9	1479.4	42.186	184.08	1513.5	50.272	300.45	1569.7	60.747	251.02	1202.1	1540.6	301.57	1130.3	1280.6	283.76
403	1.675	1394.8	1273	293.32	1266.8	1499.7	470.58	1250.3	1483.1	119.21	1277.4	1824.6	279.96	1369.1	981.05	434.86	1382.2	1008.9	184.77	1161.4	1025.6	324.95	1173.3	1033	244.08	1276.1	899.2	488.09	1274.2	923.78	109.17	1283.6	1075.1	474.37	1280.2	1084.8	131.69	1145.6	987.73	281.39	1299.9	636.91	480.59	1383.4	560.76	453.39	1307.8	546.98	466.76	1381.5	670.79	471.48	1324.3	483.17	460.12	1314.1	480.42	323.07	1111.7	395.6	454.89	1092	292.1	421.42	1056.7	352.54	442.8	1145.4	338.82	442.32	971.9	274.32	427.84	1000	256.52	341.31	915.32	304.05	364.74	896.15	279.12	334.55	887.96	285.98	399.56	970.96	143.81	463.5	1000.5	108.02	351.51	1049.1	71.693	404.54	1310.4	679.3	129.88	1410.9	606.12	145.67	1339.1	596.59	148.86	1378.1	687.22	123.41	1398	514.27	165.65	1397	508.06	291.11	1318.9	329.67	171.36	1392.4	246.27	182.33	1328.1	252.75	183.45	1384	321.82	170.61	1371.8	99.655	203.58	1373.6	111.9	298.87	1295.2	71.049	253.54	1301.5	47.244	287.87	1297.1	43.218	225.93	1479.4	42.17	184.05	1513.6	50.055	300.46	1569.8	60.456	250.99	1207	1541.5	301.44	1135.2	1281.5	283.65
404	1.6792	1399.7	1274	292.83	1271.9	1500.6	470.36	1254.9	1484.2	119.02	1282.3	1825.6	280.11	1374.8	982.22	434.14	1386.7	1009.7	183.93	1166.6	1026.5	325.28	1178.1	1033.9	244.32	1282.3	900.33	487.98	1278.1	924.5	109.03	1289.2	1076.1	474.08	1284.8	1085.9	131.44	1150.5	988.7	281.8	1308.6	638.18	480.41	1392.7	562.84	452.75	1317.3	548.35	466.42	1389.9	672.82	470.99	1334.3	484.72	459.57	1323.7	482.13	322.47	1122.5	395.28	454.48	1103.7	291.61	421.15	1067.9	351.69	442.47	1156.7	338.8	441.96	983.8	272.51	427.72	1012	255.14	341.09	926.57	301.47	364.81	907.74	276.24	334.58	899.58	282.96	399.6	984.79	142	463.3	1014.6	106.74	351.21	1063.9	71.127	404.1	1312.9	679.96	129.82	1413	605.92	145.37	1340.9	596.99	148.62	1380.6	687.3	123.17	1399.3	514.21	165.37	1398.5	508	290.8	1319.5	329.87	171.39	1392.8	246.25	182.22	1328.5	252.94	183.48	1384.6	321.82	170.49	1371.9	99.748	203.69	1373.7	111.95	298.96	1295.2	71.17	253.58	1301.5	47.305	287.91	1297.1	43.364	225.95	1479.5	42.155	184.03	1513.6	49.857	300.46	1569.8	60.189	250.96	1211.8	1542.5	301.32	1140.1	1282.4	283.55
405	1.6833	1404.6	1275	292.35	1277	1501.5	470.14	1259.5	1485.2	118.84	1287.1	1826.6	280.27	1380.4	983.37	433.44	1391.2	1010.5	183.11	1171.7	1027.5	325.6	1182.9	1034.8	244.56	1288.4	901.46	487.89	1281.9	925.2	108.9	1294.8	1077.1	473.78	1289.4	1086.9	131.18	1155.4	989.64	282.22	1317.3	639.47	480.25	1401.9	564.94	452.1	1326.8	549.74	466.08	1398.1	674.87	470.5	1344.2	486.28	459.03	1333.2	483.87	321.89	1133.2	394.87	454.08	1115.4	291.04	420.87	1079.1	350.72	442.16	1168	338.71	441.59	995.78	270.55	427.59	1024.1	253.62	340.87	937.88	298.7	364.86	919.43	273.17	334.61	911.3	279.73	399.63	998.76	140.07	463.08	1028.8	105.35	350.89	1078.8	70.489	403.64	1315.3	680.62	129.76	1415	605.71	145.08	1342.8	597.4	148.4	1383.1	687.37	122.93	1400.6	514.15	165.08	1399.9	507.93	290.48	1320.1	330.07	171.43	1393.2	246.22	182.11	1328.9	253.13	183.51	1385.2	321.82	170.37	1372	99.837	203.8	1373.8	112	299.05	1295.2	71.289	253.63	1301.5	47.364	287.95	1297.2	43.51	225.96	1479.5	42.142	184.01	1513.7	49.676	300.47	1569.9	59.943	250.94	1216.7	1543.4	301.2	1145	1283.3	283.46
406	1.6875	1409.5	1275.9	291.88	1282.1	1502.4	469.93	1264	1486.2	118.67	1291.9	1827.6	280.43	1386.1	984.49	432.74	1395.6	1011.2	182.3	1176.8	1028.4	325.93	1187.7	1035.6	244.81	1294.5	902.57	487.8	1285.8	925.88	108.78	1300.3	1078.1	473.5	1294	1087.8	130.93	1160.3	990.55	282.63	1325.9	640.79	480.09	1411.1	567.06	451.45	1336.3	551.17	465.77	1406.4	676.93	470.01	1354.1	487.88	458.5	1342.7	485.62	321.33	1144	394.37	453.69	1127.3	290.39	420.6	1090.3	349.64	441.85	1179.4	338.57	441.22	1007.8	268.44	427.45	1036.2	251.99	340.63	949.28	295.75	364.89	931.22	269.92	334.61	923.11	276.32	399.65	1012.9	138.02	462.84	1043.2	103.87	350.56	1093.9	69.792	403.17	1317.7	681.27	129.72	1416.9	605.5	144.8	1344.5	597.81	148.19	1385.5	687.44	122.69	1401.8	514.1	164.8	1401.3	507.86	290.17	1320.6	330.27	171.46	1393.5	246.21	181.99	1329.3	253.33	183.53	1385.8	321.83	170.25	1372	99.924	203.9	1373.9	112.05	299.13	1295.2	71.406	253.66	1301.5	47.421	287.98	1297.2	43.654	225.97	1479.6	42.13	183.99	1513.8	49.511	300.47	1569.9	59.715	250.91	1221.6	1544.2	301.08	1149.9	1284.2	283.37
407	1.6917	1414.3	1276.9	291.42	1287.2	1503.2	469.72	1268.6	1487.2	118.5	1296.7	1828.6	280.6	1391.7	985.59	432.05	1400	1012	181.5	1181.9	1029.3	326.26	1192.4	1036.4	245.05	1300.6	903.67	487.71	1289.6	926.54	108.68	1305.9	1079.1	473.22	1298.6	1088.8	130.68	1165.1	991.44	283.05	1334.5	642.12	479.95	1420.2	569.2	450.81	1345.7	552.62	465.47	1414.6	679.01	469.51	1363.9	489.49	457.99	1352.1	487.38	320.79	1154.7	393.79	453.32	1139.1	289.66	420.31	1101.5	348.44	441.56	1190.7	338.36	440.85	1019.9	266.2	427.29	1048.5	250.23	340.39	960.76	292.62	364.9	943.12	266.49	334.6	935.01	272.72	399.65	1027.1	135.88	462.6	1057.8	102.3	350.22	1109.2	69.045	402.69	1320	681.91	129.7	1418.8	605.29	144.52	1346.2	598.22	148	1387.9	687.5	122.44	1403	514.06	164.52	1402.7	507.8	289.87	1321.2	330.48	171.5	1393.9	246.2	181.87	1329.6	253.53	183.55	1386.3	321.85	170.13	1372.1	100.01	203.99	1374	112.11	299.2	1295.1	71.52	253.7	1301.6	47.475	288.02	1297.1	43.799	225.97	1479.6	42.118	183.98	1513.9	49.36	300.48	1570	59.504	250.89	1226.5	1545.1	300.96	1154.8	1285.1	283.28
408	1.6958	1419.2	1277.8	290.96	1292.2	1504.1	469.52	1273.2	1488.1	118.33	1301.4	1829.5	280.78	1397.3	986.66	431.37	1404.4	1012.6	180.7	1186.9	1030.1	326.59	1197.2	1037.2	245.3	1306.6	904.75	487.64	1293.4	927.18	108.59	1311.4	1080	472.94	1303.1	1089.7	130.43	1170	992.3	283.46	1343	643.47	479.82	1429.3	571.35	450.16	1355.1	554.09	465.18	1422.7	681.09	469	1373.6	491.12	457.49	1361.4	489.15	320.26	1165.5	393.12	452.96	1151	288.87	420.02	1112.8	347.13	441.27	1202.1	338.11	440.47	1032.1	263.83	427.12	1060.8	248.36	340.13	972.32	289.33	364.89	955.12	262.89	334.56	947.01	268.96	399.63	1041.5	133.66	462.36	1072.5	100.66	349.89	1124.6	68.259	402.23	1322.3	682.55	129.69	1420.7	605.08	144.25	1347.9	598.64	147.82	1390.3	687.57	122.2	1404.2	514.02	164.25	1404.1	507.74	289.58	1321.7	330.69	171.53	1394.2	246.2	181.75	1329.9	253.73	183.57	1386.9	321.87	170.02	1372.2	100.09	204.08	1374.1	112.16	299.28	1295.1	71.63	253.73	1301.6	47.526	288.05	1297.1	43.943	225.98	1479.6	42.106	183.97	1513.9	49.22	300.49	1570	59.307	250.87	1231.3	1545.9	300.86	1159.6	1285.9	283.2
409	1.7	1424.1	1278.7	290.51	1297.3	1504.9	469.32	1277.7	1489	118.17	1306.2	1830.4	280.95	1402.8	987.7	430.7	1408.8	1013.3	179.92	1192	1031	326.92	1201.9	1038	245.55	1312.6	905.82	487.57	1297.1	927.79	108.52	1316.9	1080.9	472.67	1307.7	1090.6	130.18	1174.8	993.13	283.88	1351.5	644.83	479.69	1438.3	573.52	449.5	1364.4	555.58	464.9	1430.8	683.18	468.48	1383.3	492.77	457.01	1370.7	490.91	319.75	1176.2	392.38	452.6	1163	288.01	419.73	1124.1	345.73	440.99	1213.5	337.8	440.09	1044.4	261.35	426.93	1073.2	246.38	339.87	983.98	285.88	364.84	967.24	259.14	334.5	959.11	265.04	399.59	1056	131.36	462.11	1087.3	98.946	349.56	1140.1	67.441	401.78	1324.6	683.17	129.7	1422.5	604.87	143.99	1349.6	599.07	147.66	1392.6	687.62	121.96	1405.3	513.99	163.99	1405.5	507.69	289.3	1322.3	330.91	171.56	1394.6	246.21	181.63	1330.2	253.94	183.58	1387.4	321.9	169.9	1372.3	100.16	204.17	1374.2	112.21	299.34	1295.1	71.737	253.77	1301.6	47.574	288.08	1297.1	44.087	225.97	1479.7	42.094	183.96	1514	49.091	300.5	1570.1	59.123	250.85	1236.2	1546.8	300.75	1164.5	1286.7	283.13
410	1.7042	1428.9	1279.5	290.07	1302.3	1505.7	469.12	1282.3	1489.9	118.02	1311	1831.2	281.13	1408.4	988.71	430.03	1413.1	1013.9	179.14	1197	1031.7	327.25	1206.6	1038.7	245.81	1318.7	906.87	487.5	1300.9	928.38	108.47	1322.5	1081.8	472.4	1312.1	1091.5	129.93	1179.6	993.93	284.3	1360	646.2	479.57	1447.2	575.7	448.85	1373.6	557.09	464.63	1438.8	685.27	467.96	1392.9	494.42	456.53	1379.9	492.67	319.25	1187	391.55	452.26	1175	287.09	419.43	1135.4	344.23	440.72	1224.9	337.44	439.71	1056.8	258.76	426.72	1085.7	244.3	339.6	995.73	282.28	364.76	979.47	255.23	334.42	971.32	260.97	399.52	1070.6	129.01	461.87	1102.3	97.175	349.24	1155.8	66.6	401.36	1326.8	683.79	129.73	1424.3	604.67	143.73	1351.2	599.49	147.53	1394.9	687.68	121.72	1406.4	513.96	163.73	1406.9	507.65	289.04	1322.8	331.13	171.59	1394.9	246.22	181.52	1330.5	254.16	183.59	1387.9	321.93	169.79	1372.4	100.24	204.25	1374.2	112.27	299.41	1295.1	71.842	253.79	1301.6	47.619	288.11	1297	44.231	225.96	1479.7	42.081	183.96	1514.1	48.971	300.51	1570.1	58.949	250.84	1241	1547.5	300.65	1169.3	1287.5	283.06
